Coordinates
version=1
nRows=19
nColumns=34
inDegrees=no

Units are S.I. units (second, meters, Newtons, ...)
If the header above contains a line with 'inDegrees', this indicates whether rotational values are in degrees (yes) or radians (no).

endheader
time	pelvis_tilt	pelvis_list	pelvis_rotation	pelvis_tx	pelvis_ty	pelvis_tz	hip_flexion_r	hip_adduction_r	hip_rotation_r	knee_angle_r	ankle_angle_r	subtalar_angle_r	mtp_angle_r	hip_flexion_l	hip_adduction_l	hip_rotation_l	knee_angle_l	ankle_angle_l	subtalar_angle_l	mtp_angle_l	lumbar_extension	lumbar_bending	lumbar_rotation	arm_flex_r	arm_add_r	arm_rot_r	elbow_flex_r	pro_sup_r	arm_flex_l	arm_add_l	arm_rot_l	elbow_flex_l	pro_sup_l
1.86	-0.292092	0.00507345	0.107864	-0.113656	1.42905	-0.678111	0.291877	-0.161201	-0.347126	0.101905	-0.646409	0.334707	-0.129736	0.266978	0.00133454	-0.371788	0.0311362	-0.715775	0.241006	-0.129736	-0.0424316	0.0176459	-0.11162	2.74302	-0.171885	0.652092	1.88412	2.04281	2.60332	-0.43078	0.714581	1.99796	1.72342
1.87	-0.28033	0.0118698	0.104798	-0.112377	1.44807	-0.678262	0.27338	-0.163764	-0.348863	0.0896522	-0.62456	0.2919	-0.129736	0.245577	0.0109962	-0.38218	0.0118863	-0.685821	0.220298	-0.129736	-0.0507695	0.0109949	-0.116093	2.73349	-0.174822	0.662772	1.90186	2.04285	2.60402	-0.450988	0.714655	2.01211	1.73378
1.88	-0.27263	0.0173986	0.102853	-0.11158	1.46569	-0.678587	0.262513	-0.16746	-0.356054	0.0832264	-0.605884	0.256126	-0.129736	0.232528	0.019045	-0.388558	0.000113391	-0.662014	0.207007	-0.129736	-0.0554415	0.00551104	-0.120783	2.72543	-0.178356	0.675006	1.91664	2.03557	2.60469	-0.471163	0.714995	2.02523	1.74188
1.89	-0.268286	0.0207904	0.101824	-0.111228	1.482	-0.678986	0.258667	-0.17079	-0.362618	0.0830558	-0.585033	0.226514	-0.129736	0.228094	0.0234937	-0.389381	0	-0.644086	0.20162	-0.129736	-0.0573412	0.0023482	-0.125605	2.71936	-0.182197	0.689192	1.9296	2.01747	2.60573	-0.491601	0.715635	2.03777	1.74678
1.9	-0.266947	0.0221955	0.100918	-0.111317	1.4971	-0.679413	0.261368	-0.173402	-0.362766	0.08847	-0.562938	0.199539	-0.129736	0.231002	0.0242962	-0.383608	0.00317128	-0.631195	0.202796	-0.129736	-0.0567054	0.00136156	-0.128399	2.71583	-0.186787	0.706054	1.93994	2.00022	2.60514	-0.511283	0.71502	2.04982	1.74846
1.91	-0.268457	0.0220017	0.100248	-0.111864	1.51102	-0.679923	0.269646	-0.175364	-0.354505	0.0974521	-0.54462	0.17542	-0.129736	0.239557	0.0224021	-0.371506	0.011927	-0.62327	0.210328	-0.129736	-0.053298	0.00203997	-0.128133	2.71433	-0.192369	0.724419	1.94586	2.00243	2.60039	-0.529015	0.711394	2.06073	1.75161
1.92	-0.271487	0.0201266	0.0997238	-0.112779	1.5239	-0.680407	0.280994	-0.175894	-0.338982	0.107587	-0.533182	0.155953	-0.129736	0.25082	0.0179657	-0.355094	0.0204833	-0.619592	0.225565	-0.129736	-0.0482097	0.00440807	-0.124242	2.71413	-0.199554	0.744741	1.95061	1.99729	2.58964	-0.543821	0.702878	2.06969	1.76237
1.93	-0.273684	0.0166286	0.0987475	-0.113928	1.53594	-0.680611	0.292031	-0.174212	-0.318742	0.117273	-0.527575	0.141777	-0.129736	0.261197	0.0108573	-0.337871	0.026676	-0.619248	0.248089	-0.129736	-0.0441907	0.00808426	-0.118296	2.71369	-0.208624	0.763649	1.95482	1.99051	2.57556	-0.555967	0.691881	2.07715	1.77441
1.94	-0.273314	0.0124172	0.097232	-0.115136	1.54721	-0.680558	0.300144	-0.171136	-0.297113	0.12581	-0.525069	0.13378	-0.129736	0.267825	0.00236619	-0.322501	0.0292986	-0.621675	0.274315	-0.129736	-0.0433764	0.0118727	-0.112353	2.71211	-0.219334	0.779181	1.95903	1.9842	2.56173	-0.56601	0.681529	2.08186	1.79144
1.95	-0.270431	0.00853317	0.0957006	-0.116206	1.55768	-0.680523	0.304672	-0.168247	-0.276965	0.132712	-0.523863	0.132685	-0.129736	0.270106	-0.00573738	-0.310593	0.028373	-0.625126	0.300032	-0.129736	-0.0454333	0.0151581	-0.10816	2.70928	-0.22978	0.791366	1.96258	1.97691	2.54967	-0.575721	0.674075	2.0862	1.80147
1.96	-0.266287	0.00527666	0.0939361	-0.117081	1.56727	-0.680563	0.306722	-0.165978	-0.258879	0.13761	-0.523323	0.136929	-0.129736	0.269605	-0.0131578	-0.303878	0.025597	-0.626189	0.322331	-0.129736	-0.0486398	0.0182117	-0.106171	2.705	-0.238328	0.802578	1.96822	1.93566	2.53954	-0.58702	0.668951	2.08878	1.82006
1.97	-0.261856	0.00256328	0.0912691	-0.117841	1.57591	-0.680534	0.307571	-0.164067	-0.242715	0.140825	-0.521692	0.145163	-0.129736	0.268135	-0.0204076	-0.303349	0.0232584	-0.622522	0.33993	-0.129736	-0.0519326	0.0210344	-0.10527	2.69894	-0.245679	0.809348	1.96767	1.93994	2.53098	-0.600146	0.667114	2.09349	1.82325
1.98	-0.257344	0.000362036	0.0878334	-0.118508	1.58354	-0.680428	0.307538	-0.162607	-0.229428	0.143107	-0.516587	0.156461	-0.129736	0.266509	-0.0273928	-0.30774	0.0227136	-0.614871	0.35231	-0.129736	-0.0553449	0.0231866	-0.103113	2.69269	-0.254653	0.816723	1.96688	1.94154	2.52253	-0.612729	0.66651	2.09863	1.81865
1.99	-0.25263	-0.00120503	0.0843849	-0.119005	1.59014	-0.680362	0.306487	-0.162016	-0.219946	0.145305	-0.506803	0.168866	-0.129736	0.264816	-0.0334712	-0.314212	0.0242261	-0.604959	0.358126	-0.129736	-0.0589985	0.0243868	-0.101003	2.68716	-0.264527	0.823396	1.96447	1.95134	2.51553	-0.624769	0.667884	2.10272	1.81454
2	-0.247584	-0.00206889	0.0817633	-0.119367	1.59569	-0.680473	0.304601	-0.16263	-0.21425	0.148474	-0.492658	0.180261	-0.129736	0.262916	-0.0380538	-0.318912	0.0271952	-0.5935	0.353014	-0.129736	-0.0628408	0.0244703	-0.101178	2.68247	-0.273686	0.82894	1.96201	1.95247	2.51122	-0.636707	0.672596	2.10504	1.81461
2.01	-0.242239	-0.00234431	0.0806577	-0.119733	1.60024	-0.680811	0.302335	-0.16447	-0.211472	0.153425	-0.475495	0.189052	-0.129736	0.261034	-0.0410394	-0.319286	0.0311175	-0.580688	0.334515	-0.129736	-0.0668488	0.0234379	-0.104257	2.67802	-0.282312	0.833218	1.95991	1.94523	2.50934	-0.648128	0.681221	2.1072	1.80757
2.02	-0.237672	-0.00246784	0.0811681	-0.120063	1.60376	-0.681329	0.300828	-0.167071	-0.210567	0.160243	-0.456479	0.194087	-0.129736	0.260443	-0.0429001	-0.315582	0.0357566	-0.567939	0.305487	-0.129736	-0.0699403	0.0221139	-0.108727	2.67401	-0.291022	0.836616	1.95635	1.95135	2.50806	-0.658965	0.6914	2.11003	1.79338
2.03	-0.23537	-0.00298794	0.0820931	-0.120129	1.60616	-0.681857	0.301562	-0.169379	-0.209904	0.168561	-0.436254	0.193567	-0.129736	0.2626	-0.0447051	-0.311261	0.0411806	-0.556548	0.273643	-0.129736	-0.0703066	0.0214717	-0.112767	2.67099	-0.299304	0.842912	1.95698	1.92174	2.5068	-0.670383	0.701426	2.11215	1.78785
2.04	-0.235208	-0.0041365	0.0828326	-0.119927	1.60739	-0.682335	0.304694	-0.170844	-0.209199	0.178476	-0.415366	0.187469	-0.129736	0.266965	-0.0468429	-0.30701	0.0465441	-0.547994	0.241764	-0.129736	-0.0677244	0.0216069	-0.116418	2.66858	-0.30622	0.847403	1.95306	1.93574	2.50577	-0.682637	0.713336	2.11745	1.76486
